<?xml version="1.0" encoding="UTF-8" standalone="no"?>
<!-- Created with Inkscape (http://www.inkscape.org/) -->

<svg
   width="100mm"
   height="100mm"
   viewBox="0 0 100 100"
   version="1.1"
   id="svg1"
   xml:space="preserve"
   inkscape:version="1.4.2 (ebf0e940, 2025-05-08)"
   sodipodi:docname="logotipo.svg"
   xmlns:inkscape="http://www.inkscape.org/namespaces/inkscape"
   xmlns:sodipodi="http://sodipodi.sourceforge.net/DTD/sodipodi-0.dtd"
   xmlns:xlink="http://www.w3.org/1999/xlink"
   xmlns="http://www.w3.org/2000/svg"
   xmlns:svg="http://www.w3.org/2000/svg"><sodipodi:namedview
     id="namedview1"
     pagecolor="#ffffff"
     bordercolor="#000000"
     borderopacity="0.25"
     inkscape:showpageshadow="2"
     inkscape:pageopacity="0.0"
     inkscape:pagecheckerboard="0"
     inkscape:deskcolor="#d1d1d1"
     inkscape:document-units="mm"
     showguides="true"
     inkscape:zoom="0.5"
     inkscape:cx="265"
     inkscape:cy="481"
     inkscape:window-width="1920"
     inkscape:window-height="932"
     inkscape:window-x="1080"
     inkscape:window-y="472"
     inkscape:window-maximized="1"
     inkscape:current-layer="layer1"
     showgrid="false"><inkscape:page
       x="0"
       y="0"
       width="100"
       height="100"
       id="page37"
       margin="0"
       bleed="0" /><inkscape:page
       x="120"
       y="2.3706056e-07"
       width="100"
       height="100"
       id="page38"
       margin="0"
       bleed="0" /><inkscape:grid
       id="grid39"
       units="mm"
       originx="0"
       originy="0"
       spacingx="0.99999999"
       spacingy="0.99999999"
       empcolor="#0099e5"
       empopacity="0.30196078"
       color="#0099e5"
       opacity="0.14901961"
       empspacing="5"
       enabled="true"
       visible="false" /><sodipodi:guide
       position="41.907861,99.999999"
       orientation="0,-1"
       id="guide39"
       inkscape:locked="false" /><inkscape:page
       x="0"
       y="120"
       width="100"
       height="100"
       id="page39"
       margin="0"
       bleed="0" /><sodipodi:guide
       position="100,99.999999"
       orientation="1,0"
       id="guide40"
       inkscape:locked="false" /><sodipodi:guide
       position="350.88533,131.48542"
       orientation="-1,0"
       id="guide41"
       inkscape:locked="false"
       inkscape:label=""
       inkscape:color="rgb(0,134,229)" /><sodipodi:guide
       position="120,146.56667"
       orientation="-1,0"
       id="guide42"
       inkscape:locked="false"
       inkscape:label=""
       inkscape:color="rgb(0,134,229)" /><sodipodi:guide
       position="240,134.39583"
       orientation="-1,0"
       id="guide43"
       inkscape:locked="false"
       inkscape:label=""
       inkscape:color="rgb(0,134,229)" /><sodipodi:guide
       position="140.75833,-9.9999998e-07"
       orientation="0,-1"
       id="guide44"
       inkscape:locked="false" /><sodipodi:guide
       position="75.141666,-20"
       orientation="0,1"
       id="guide45"
       inkscape:locked="false"
       inkscape:label=""
       inkscape:color="rgb(0,134,229)" /><sodipodi:guide
       position="0,60.3125"
       orientation="1,0"
       id="guide46"
       inkscape:locked="false" /><inkscape:page
       x="120"
       y="120"
       width="100"
       height="100"
       id="page46"
       margin="0"
       bleed="0" /></sodipodi:namedview><defs
     id="defs1"><linearGradient
       id="linearGradient46"
       inkscape:collect="always"><stop
         style="stop-color:#2f82f9;stop-opacity:1;"
         offset="0"
         id="stop46" /><stop
         style="stop-color:#6952d8;stop-opacity:1;"
         offset="0.5"
         id="stop48" /><stop
         style="stop-color:#e1565b;stop-opacity:1;"
         offset="1"
         id="stop47" /></linearGradient><linearGradient
       inkscape:collect="always"
       xlink:href="#linearGradient46"
       id="linearGradient47"
       x1="8"
       y1="50.025001"
       x2="92"
       y2="50.025001"
       gradientUnits="userSpaceOnUse" /><linearGradient
       inkscape:collect="always"
       xlink:href="#linearGradient46"
       id="linearGradient47-5"
       x1="8"
       y1="50.025002"
       x2="92"
       y2="50.025002"
       gradientUnits="userSpaceOnUse"
       gradientTransform="translate(-3.3e-6,-120)" /><linearGradient
       inkscape:collect="always"
       xlink:href="#linearGradient46"
       id="linearGradient48"
       gradientUnits="userSpaceOnUse"
       gradientTransform="translate(-3.3e-6,-120)"
       x1="8"
       y1="50.025002"
       x2="92"
       y2="50.025002" /><linearGradient
       inkscape:collect="always"
       xlink:href="#linearGradient46"
       id="linearGradient49"
       gradientUnits="userSpaceOnUse"
       gradientTransform="translate(-3.3e-6,-120)"
       x1="8"
       y1="50.025002"
       x2="92"
       y2="50.025002" /><linearGradient
       inkscape:collect="always"
       xlink:href="#linearGradient46"
       id="linearGradient50"
       gradientUnits="userSpaceOnUse"
       gradientTransform="translate(-3.3e-6,-120)"
       x1="8"
       y1="50.025002"
       x2="92"
       y2="50.025002" /></defs><g
     inkscape:label="Capa 1"
     inkscape:groupmode="layer"
     id="layer1"><g
       id="g33"
       transform="translate(0,-0.0250005)"
       style="display:inline;stroke:#000000;stroke-opacity:1"><path
         style="fill:none;stroke:#000000;stroke-width:4;stroke-linecap:round;stroke-linejoin:round;stroke-dasharray:none;stroke-opacity:1;paint-order:stroke markers fill"
         d="M 19.868987,54.387016 50,54.565884 c 9.44,0.05604 9.44,-9.340885 19.45,-9.340885 h 15.412251"
         id="path19"
         sodipodi:nodetypes="cccc" /><path
         style="fill:none;stroke:#000000;stroke-width:4;stroke-linecap:round;stroke-linejoin:round;stroke-dasharray:none;stroke-opacity:1;paint-order:stroke markers fill"
         d="m 10,64.225001 h 40 c 9.448734,-1e-6 9.440001,-9.603078 19.45,-9.550002 l 8.578821,10e-7"
         id="path19-4"
         sodipodi:nodetypes="cccc" /><path
         style="fill:none;stroke:#000000;stroke-width:4;stroke-linecap:round;stroke-linejoin:round;stroke-dasharray:none;stroke-opacity:1;paint-order:stroke markers fill"
         d="M 26.821633,45.224999 H 50 c 9.44,0 9.44,-9.399999 19.45,-9.399999 H 90"
         id="path19-5"
         sodipodi:nodetypes="cccc" /></g><g
       id="g34"
       transform="matrix(1,0,0,0.99606442,438.77715,73.748992)"
       style="display:inline;stroke-width:1.00197"><g
         id="g35"><path
           style="baseline-shift:baseline;display:inline;overflow:visible;vector-effect:none;fill:#000000;stroke-width:1.00197;stroke-linecap:square;paint-order:stroke markers fill;enable-background:accumulate;stop-color:#000000"
           d="m 68.080952,-4.2113453 v 2.542215 h 6.904807 c 0.538998,0 1.219647,0.227922 1.734048,0.667502 0.514409,0.439565 0.878686,1.061724 0.878748,1.945115 1.52e-4,1.417047 -1.113692,2.561988 -2.516292,2.612633 -0.03953,7.53e-4 -0.07249,0.0015 -0.09646,0.0015 h -6.904832 v 7.2902963 h 2.542378 V 6.0972287 h 3.447215 l 3.428927,4.7506873 h 3.134293 L 76.821523,5.5626857 c 1.887632,-0.766833 3.31952,-2.463516 3.319438,-4.620304 -3.01e-4,-2.840208 -2.314755,-5.151956 -5.155161,-5.152212 z"
           id="path80-2-7-7-4-9" /><path
           style="baseline-shift:baseline;display:inline;overflow:visible;vector-effect:none;fill:#000000;stroke-width:1.00197;stroke-linecap:square;paint-order:stroke markers fill;enable-background:accumulate;stop-color:#000000"
           d="M 123.83873,-4.2113506 V 10.847916 h 12.06126 V 8.3054604 h -9.51861 v -12.516811 z"
           id="path79-5-9-4-6-9" /><path
           style="baseline-shift:baseline;display:inline;overflow:visible;vector-effect:none;fill:#000000;stroke-width:1.00197;stroke-linecap:square;paint-order:stroke markers fill;enable-background:accumulate;stop-color:#000000"
           d="m 100.96494,-4.211351 v 15.059267 h 2.54264 V -4.211321 Z"
           id="path78-0-2-9-7-6" /><path
           id="path77-4-4-6-5-0"
           style="baseline-shift:baseline;display:inline;overflow:visible;vector-effect:none;fill:#000000;stroke-width:1.00197;stroke-linecap:square;paint-order:stroke markers fill;enable-background:accumulate;stop-color:#000000"
           d="M 35.69127,-4.211351 V -1.67147 H 47.7498 v -2.539881 z m 0,6.258436 V 4.589556 H 46.242498 V 2.047085 Z m 0,6.25836 v 2.542471 H 47.7498 V 8.305445 Z" /><path
           style="baseline-shift:baseline;display:inline;overflow:visible;vector-effect:none;fill:#000000;stroke-width:1.00197;stroke-linecap:square;paint-order:stroke markers fill;enable-background:accumulate;stop-color:#000000"
           d="M 0,-4.2113509 6.5862154,10.847916 H 8.7711999 L 15.360117,-4.2087609 H 12.572834 L 7.6735718,6.9683631 2.7717093,-4.2087609 Z"
           id="path58-5-3-2-8-9-9-1" /></g></g><path
       style="font-weight:bold;font-size:5.83145px;line-height:1;font-family:Futura;-inkscape-font-specification:'Futura Bold';text-align:center;letter-spacing:4.58038px;text-anchor:middle;display:inline;fill:#000000;stroke-width:2.6;stroke-linecap:round;paint-order:stroke markers fill"
       d="m 464.72714,95.803856 v -5.399254 h 1.32069 l 2.43925,3.301137 v -3.301137 h 1.31395 v 5.399254 h -1.31395 l -2.43925,-3.301125 v 3.301125 z m 14.20731,-2.005018 -0.59296,-1.79737 -0.59296,1.79737 z m 0.35039,1.066954 h -1.8867 l -0.30323,0.938064 h -1.40829 l 1.93388,-5.399254 h 1.44197 l 1.93389,5.399254 h -1.4083 z m 7.58362,0.938064 v -5.399254 h 1.3207 l 2.43925,3.301137 v -3.301137 h 1.31394 v 5.399254 h -1.31394 l -2.43925,-3.301125 v 3.301125 z m 12.64404,-2.699621 q 0,0.322218 0.11456,0.594339 0.11454,0.272109 0.30996,0.472603 0.1954,0.200505 0.45145,0.315088 0.2628,0.107418 0.55254,0.107418 0.28975,0 0.5458,-0.107418 0.26278,-0.114526 0.4582,-0.315088 0.20214,-0.200494 0.3167,-0.472603 0.11456,-0.272121 0.11456,-0.594339 0,-0.322241 -0.11456,-0.594351 -0.11457,-0.272109 -0.3167,-0.472614 -0.19542,-0.200505 -0.4582,-0.307923 -0.25605,-0.114537 -0.5458,-0.114537 -0.28974,0 -0.55254,0.114537 -0.25605,0.107418 -0.45145,0.307923 -0.19542,0.200505 -0.30996,0.472614 -0.11456,0.27211 -0.11456,0.594351 z m -1.38134,0 q 0,-0.601504 0.20889,-1.117097 0.20888,-0.522735 0.57949,-0.909405 0.37059,-0.386691 0.8827,-0.601526 0.51884,-0.221989 1.13877,-0.221989 0.61317,0 1.13201,0.221989 0.51885,0.214835 0.88947,0.601526 0.37733,0.38667 0.58622,0.909405 0.20888,0.515593 0.20888,1.117097 0,0.601504 -0.20888,1.124239 -0.20889,0.515582 -0.58622,0.902262 -0.37062,0.386692 -0.88947,0.608669 -0.51884,0.214813 -1.13201,0.214813 -0.61993,0 -1.13877,-0.214813 -0.51211,-0.221977 -0.8827,-0.608669 -0.37061,-0.38668 -0.57949,-0.902262 -0.20889,-0.522735 -0.20889,-1.124239 z m 20.6589,-0.286428 h 0.24932 q 0.39082,0 0.5997,-0.171879 0.20889,-0.171857 0.20889,-0.494087 0,-0.322241 -0.20889,-0.494098 -0.20888,-0.171857 -0.5997,-0.171857 h -0.24932 z m 2.9042,2.986049 h -1.64414 l -1.26006,-2.076645 v 2.076645 h -1.32068 v -5.399254 h 2.05516 q 0.42448,0 0.7412,0.136066 0.3167,0.128879 0.51885,0.358044 0.20888,0.229142 0.30995,0.529889 0.10777,0.300746 0.10777,0.644482 0,0.615823 -0.28301,1.002503 -0.27626,0.379516 -0.82205,0.515582 z m 8.73585,-4.210552 h -1.57002 v 0.90225 h 1.48241 v 1.18869 h -1.48241 v 0.930911 h 1.57002 v 1.188701 h -2.89072 v -5.399254 h 2.89072 z m 9.13341,0 h -1.57001 v 0.90225 h 1.48241 v 1.18869 h -1.48241 v 0.930911 h 1.57001 v 1.188701 h -2.8907 v -5.399254 h 2.8907 z m 9.15362,0 h -1.59022 v 0.90225 h 1.44872 v 1.18869 h -1.44872 v 2.119612 h -1.32069 v -5.399254 h 2.91091 z"
       id="text100-2-6"
       aria-label="NANO REEF" /><g
       id="g33-7"
       transform="matrix(0.999875,0,0,1,456.72839,-9.040911)"
       style="display:inline;stroke-width:1.00006"><path
         style="baseline-shift:baseline;display:inline;overflow:visible;opacity:1;vector-effect:none;stroke-linecap:round;stroke-linejoin:round;paint-order:stroke markers fill;enable-background:accumulate;stop-color:#000000;stop-opacity:1"
         d="m 69.449219,43.224609 c -5.630875,0 -8.882296,2.897563 -11.326172,5.251953 -2.443876,2.354391 -4.054959,4.113925 -8.111328,4.089844 l -30.13086,-0.179687 a 2.0001249,2.0001249 0 0 0 -2.011718,1.988281 2.0001249,2.0001249 0 0 0 1.988281,2.011719 l 30.130859,0.179687 c 5.383631,0.03196 8.491533,-2.878922 10.910156,-5.208984 2.418624,-2.330062 4.171657,-4.132813 8.550782,-4.132813 h 15.412109 a 2.0001249,2.0001249 0 0 0 2.001953,-2 2.0001249,2.0001249 0 0 0 -2.001953,-2 z"
         id="path19-8" /><path
         style="baseline-shift:baseline;display:inline;overflow:visible;opacity:1;vector-effect:none;stroke-linecap:round;stroke-linejoin:round;paint-order:stroke markers fill;enable-background:accumulate;stop-color:#000000;stop-opacity:1"
         d="m 69.460937,52.675781 c -5.644575,-0.02993 -8.904425,2.92114 -11.349609,5.330078 -2.445184,2.408938 -4.06456,4.21875 -8.111328,4.21875 H 10 a 2.0001249,2.0001249 0 0 0 -2,2 2.0001249,2.0001249 0 0 0 2,2 h 40 c 5.401966,0 8.502836,-2.989809 10.917969,-5.36914 2.415132,-2.379332 4.15606,-4.202835 8.521484,-4.179688 a 2.0003249,2.0003249 0 0 0 0.0098,0 h 8.580078 a 2.0001249,2.0001249 0 0 0 2,-2 2.0001249,2.0001249 0 0 0 -2,-2 z"
         id="path19-4-0" /><path
         style="baseline-shift:baseline;display:inline;overflow:visible;opacity:1;vector-effect:none;stroke-linecap:round;stroke-linejoin:round;paint-order:stroke markers fill;enable-background:accumulate;stop-color:#000000;stop-opacity:1"
         d="m 69.449219,33.824219 c -5.63108,0 -8.882835,2.898148 -11.328125,5.261718 C 55.675803,41.449508 54.056117,43.224609 50,43.224609 H 26.822266 a 2.0001249,2.0001249 0 0 0 -2,2 2.0001249,2.0001249 0 0 0 2,2 H 50 c 5.383883,0 8.483181,-2.92529 10.900391,-5.261718 2.417209,-2.336429 4.169907,-4.138672 8.548828,-4.138672 H 90 a 2.0001249,2.0001249 0 0 0 2,-2 2.0001249,2.0001249 0 0 0 -2,-2 z"
         id="path19-5-6" /></g><rect
       style="fill:#000000;fill-opacity:1;stroke:none;stroke-width:4;stroke-linecap:round;stroke-linejoin:round;stroke-dasharray:none;stroke-opacity:1;paint-order:stroke markers fill"
       id="rect46"
       width="100"
       height="100"
       x="0"
       y="120" /><rect
       style="fill:#000000;fill-opacity:1;stroke:none;stroke-width:4;stroke-linecap:round;stroke-linejoin:round;stroke-dasharray:none;stroke-opacity:1;paint-order:stroke markers fill"
       id="rect46-7"
       width="100"
       height="100"
       x="120"
       y="120" /><g
       id="g33-2"
       transform="translate(0,119.975)"
       style="display:inline"><g
         id="g46"
         style="stroke:#ffffff;stroke-opacity:1"><path
           style="fill:none;stroke:#ffffff;stroke-width:4;stroke-linecap:round;stroke-linejoin:round;stroke-dasharray:none;stroke-opacity:1;paint-order:stroke markers fill"
           d="M 19.868987,54.387016 50,54.565884 c 9.44,0.05604 9.44,-9.340885 19.45,-9.340885 h 15.412251"
           id="path19-0"
           sodipodi:nodetypes="cccc" /><path
           style="fill:none;stroke:#ffffff;stroke-width:4;stroke-linecap:round;stroke-linejoin:round;stroke-dasharray:none;stroke-opacity:1;paint-order:stroke markers fill"
           d="m 10,64.225001 h 40 c 9.448734,-1e-6 9.440001,-9.603078 19.45,-9.550002 l 8.578821,10e-7"
           id="path19-4-7"
           sodipodi:nodetypes="cccc" /><path
           style="fill:none;stroke:#ffffff;stroke-width:4;stroke-linecap:round;stroke-linejoin:round;stroke-dasharray:none;stroke-opacity:1;paint-order:stroke markers fill"
           d="M 26.821633,45.224999 H 50 c 9.44,0 9.44,-9.399999 19.45,-9.399999 H 90"
           id="path19-5-7"
           sodipodi:nodetypes="cccc" /></g></g><g
       id="g33-1"
       transform="translate(120,-0.02499988)"
       style="display:inline;stroke:url(#linearGradient47);stroke-opacity:1"><path
         style="fill:none;stroke:url(#linearGradient47);stroke-width:4;stroke-linecap:round;stroke-linejoin:round;stroke-dasharray:none;stroke-opacity:1;paint-order:stroke markers fill"
         d="M 19.868987,54.387016 50,54.565884 c 9.44,0.05604 9.44,-9.340885 19.45,-9.340885 h 15.412251"
         id="path19-9"
         sodipodi:nodetypes="cccc" /><path
         style="fill:none;stroke:url(#linearGradient47);stroke-width:4;stroke-linecap:round;stroke-linejoin:round;stroke-dasharray:none;stroke-opacity:1;paint-order:stroke markers fill"
         d="m 10,64.225001 h 40 c 9.448734,-1e-6 9.440001,-9.603078 19.45,-9.550002 l 8.578821,10e-7"
         id="path19-4-6"
         sodipodi:nodetypes="cccc" /><path
         style="fill:none;stroke:url(#linearGradient47);stroke-width:4;stroke-linecap:round;stroke-linejoin:round;stroke-dasharray:none;stroke-opacity:1;paint-order:stroke markers fill"
         d="M 26.821633,45.224999 H 50 c 9.44,0 9.44,-9.399999 19.45,-9.399999 H 90"
         id="path19-5-78"
         sodipodi:nodetypes="cccc" /></g><g
       id="g33-1-7"
       transform="translate(120,119.975)"
       style="display:inline;stroke:url(#linearGradient47-5);stroke-opacity:1"><path
         style="fill:none;stroke:url(#linearGradient48);stroke-width:4;stroke-linecap:round;stroke-linejoin:round;stroke-dasharray:none;stroke-opacity:1;paint-order:stroke markers fill"
         d="M 19.868987,54.387016 50,54.565884 c 9.44,0.05604 9.44,-9.340885 19.45,-9.340885 h 15.412251"
         id="path19-9-9"
         sodipodi:nodetypes="cccc" /><path
         style="fill:none;stroke:url(#linearGradient49);stroke-width:4;stroke-linecap:round;stroke-linejoin:round;stroke-dasharray:none;stroke-opacity:1;paint-order:stroke markers fill"
         d="m 10,64.225001 h 40 c 9.448734,-1e-6 9.440001,-9.603078 19.45,-9.550002 l 8.578821,10e-7"
         id="path19-4-6-5"
         sodipodi:nodetypes="cccc" /><path
         style="fill:none;stroke:url(#linearGradient50);stroke-width:4;stroke-linecap:round;stroke-linejoin:round;stroke-dasharray:none;stroke-opacity:1;paint-order:stroke markers fill"
         d="M 26.821633,45.224999 H 50 c 9.44,0 9.44,-9.399999 19.45,-9.399999 H 90"
         id="path19-5-78-5"
         sodipodi:nodetypes="cccc" /></g></g></svg>
