<svg xmlns="http://www.w3.org/2000/svg" viewBox="0 0 560 300" role="img" aria-labelledby="title desc"><title id="title">Isotipo de Veril</title><desc id="desc">Tres trazos horizontales fluidos y escalonados.</desc><defs><linearGradient id="g" x1="0" x2="1"><stop stop-color="#2f82f9"/><stop offset=".5" stop-color="#6952d8"/><stop offset="1" stop-color="#e1565b"/></linearGradient></defs><g fill="none" stroke="url(#g)" stroke-width="14" stroke-linecap="round" stroke-linejoin="round"><path d="M35 48h105c19 0 25 10 33 25s17 22 39 22h36c21 0 31 9 42 26l28 42c10 15 22 22 44 22h76"/><path d="M80 105h70c19 0 28 7 41 23l50 61c11 13 22 19 42 19h157"/><path d="M120 160h27c18 0 27 7 38 23l33 48c10 14 22 19 43 19h260"/></g></svg>
